<svg width="1200" height="675" viewBox="0 0 1200 675" fill="none" xmlns="http://www.w3.org/2000/svg">
  <defs>
    <linearGradient id="bg" x1="0" y1="0" x2="1200" y2="675" gradientUnits="userSpaceOnUse">
      <stop stop-color="#1B0E2A"/>
      <stop offset="1" stop-color="#3B1634"/>
    </linearGradient>
    <radialGradient id="glow1" cx="0" cy="0" r="1" gradientUnits="userSpaceOnUse" gradientTransform="translate(320 210) rotate(29) scale(320 220)">
      <stop stop-color="#FF7DB8" stop-opacity="0.8"/>
      <stop offset="1" stop-color="#FF7DB8" stop-opacity="0"/>
    </radialGradient>
    <radialGradient id="glow2" cx="0" cy="0" r="1" gradientUnits="userSpaceOnUse" gradientTransform="translate(880 500) rotate(-20) scale(320 220)">
      <stop stop-color="#B38CFF" stop-opacity="0.6"/>
      <stop offset="1" stop-color="#B38CFF" stop-opacity="0"/>
    </radialGradient>
  </defs>
  <rect width="1200" height="675" fill="url(#bg)"/>
  <rect width="1200" height="675" fill="url(#glow1)"/>
  <rect width="1200" height="675" fill="url(#glow2)"/>
  <g opacity="0.3" stroke="#FFD5E8" stroke-width="1.5">
    <path d="M40 570C120 520 180 510 260 570C340 630 400 620 480 570C560 520 620 510 700 570C780 630 840 620 920 570C1000 520 1060 510 1140 570"/>
    <path d="M40 520C120 470 180 460 260 520C340 580 400 570 480 520C560 470 620 460 700 520C780 580 840 570 920 520C1000 470 1060 460 1140 520"/>
  </g>
</svg>